<svg xmlns="http://www.w3.org/2000/svg" xmlns:xlink="http://www.w3.org/1999/xlink" preserveAspectRatio="xMidYMid" width="37" height="40" viewBox="0 0 37 40">
  <defs>
    <style>
      .cls-1 {
        fill: #999;
        fill-rule: evenodd;
      }
    </style>
  </defs>
  <path d="M26.506,14.792 C26.766,14.602 27.126,14.630 27.354,14.862 C27.583,15.094 27.611,15.459 27.422,15.723 L21.280,24.353 C20.876,24.917 20.253,25.272 19.570,25.326 C19.509,25.330 19.448,25.333 19.387,25.333 C18.770,25.333 18.176,25.085 17.736,24.637 C17.252,24.146 17.005,23.466 17.058,22.772 C17.111,22.078 17.459,21.446 18.013,21.036 L26.506,14.792 ZM18.663,23.694 C18.876,23.911 19.169,24.016 19.467,23.996 C19.767,23.972 20.041,23.817 20.218,23.570 L23.965,18.306 L18.784,22.115 C18.543,22.294 18.389,22.572 18.366,22.876 C18.342,23.180 18.451,23.479 18.663,23.694 ZM34.221,9.272 L33.293,8.329 L31.884,9.760 C32.775,10.735 33.559,11.810 34.223,12.966 C34.231,12.979 34.244,12.986 34.252,13.000 C34.259,13.014 34.259,13.028 34.265,13.042 C35.763,15.682 36.624,18.740 36.624,22.000 C36.624,25.260 35.763,28.317 34.265,30.957 C34.258,30.971 34.259,30.986 34.251,31.000 C34.240,31.020 34.224,31.034 34.212,31.052 C32.664,33.742 30.450,35.990 27.800,37.559 C27.788,37.568 27.781,37.580 27.768,37.588 C27.748,37.600 27.726,37.605 27.706,37.614 C25.146,39.109 22.187,39.974 19.034,39.996 C19.029,39.996 19.024,40.000 19.019,40.000 C19.015,40.000 19.012,39.997 19.007,39.997 C18.975,39.998 18.944,40.000 18.912,40.000 C17.585,40.000 16.247,39.845 14.938,39.538 C14.585,39.456 14.364,39.098 14.445,38.740 C14.526,38.381 14.878,38.153 15.231,38.239 C16.265,38.480 17.316,38.614 18.364,38.650 L18.364,37.333 C18.364,36.964 18.657,36.666 19.020,36.666 C19.383,36.666 19.676,36.964 19.676,37.333 L19.676,38.645 C22.143,38.530 24.468,37.856 26.535,36.748 L25.889,35.610 C25.707,35.292 25.814,34.884 26.129,34.700 C26.441,34.515 26.843,34.624 27.025,34.944 L27.670,36.079 C29.722,34.756 31.466,32.984 32.768,30.897 L31.651,30.242 C31.337,30.058 31.230,29.651 31.411,29.332 C31.592,29.011 31.994,28.904 32.307,29.087 L33.427,29.745 C34.532,27.614 35.197,25.213 35.296,22.666 L34.000,22.666 C33.638,22.666 33.344,22.368 33.344,21.999 C33.344,21.630 33.638,21.332 34.000,21.332 L35.296,21.332 C35.197,18.785 34.532,16.383 33.427,14.253 L32.307,14.910 C32.204,14.971 32.091,15.000 31.980,15.000 C31.753,15.000 31.533,14.880 31.411,14.666 C31.229,14.347 31.337,13.940 31.650,13.755 L32.767,13.100 C31.465,11.014 29.721,9.242 27.668,7.919 L27.024,9.054 C26.902,9.268 26.682,9.388 26.455,9.388 C26.343,9.388 26.230,9.359 26.127,9.298 C25.814,9.114 25.706,8.707 25.887,8.388 L26.534,7.250 C24.467,6.142 22.142,5.468 19.675,5.353 L19.675,6.666 C19.675,7.035 19.382,7.333 19.019,7.333 C18.656,7.333 18.363,7.035 18.363,6.666 L18.363,5.348 C18.170,5.357 17.972,5.370 17.757,5.386 L17.053,5.442 C16.442,5.513 15.832,5.619 15.229,5.760 C14.876,5.843 14.524,5.618 14.443,5.259 C14.362,4.900 14.583,4.542 14.936,4.460 C15.635,4.298 16.342,4.180 17.051,4.104 L17.051,3.333 L16.067,3.333 C15.162,3.333 14.427,2.586 14.427,1.666 C14.427,0.747 15.162,-0.000 16.067,-0.000 L21.971,-0.000 C22.876,-0.000 23.612,0.747 23.612,1.666 C23.612,2.586 22.876,3.333 21.972,3.333 L20.987,3.333 L20.987,4.127 C23.418,4.417 25.698,5.208 27.727,6.396 C27.741,6.404 27.755,6.403 27.769,6.411 C27.782,6.419 27.789,6.432 27.802,6.440 C28.940,7.114 29.997,7.912 30.956,8.818 L32.366,7.386 L31.437,6.443 L34.221,3.615 L37.004,6.443 L34.221,9.272 ZM21.971,2.000 C22.151,2.000 22.299,1.850 22.299,1.666 C22.299,1.483 22.151,1.333 21.971,1.333 L16.067,1.333 C15.886,1.333 15.739,1.483 15.739,1.666 C15.739,1.850 15.886,2.000 16.067,2.000 L18.363,2.000 L18.363,4.014 C18.442,4.010 18.513,4.011 18.589,4.009 C18.697,4.007 18.804,4.000 18.912,4.000 C18.928,4.000 18.945,4.001 18.961,4.001 C18.979,4.001 19.000,4.000 19.019,4.000 C19.229,4.000 19.447,4.004 19.675,4.014 L19.675,2.000 L21.971,2.000 ZM34.220,5.500 L33.292,6.443 L34.220,7.386 L35.148,6.443 L34.220,5.500 ZM13.115,34.000 L8.522,34.000 C8.160,34.000 7.866,33.702 7.866,33.333 C7.866,32.964 8.160,32.666 8.522,32.666 L13.115,32.666 C13.477,32.666 13.771,32.964 13.771,33.333 C13.771,33.702 13.477,34.000 13.115,34.000 ZM13.115,29.333 L4.586,29.333 C4.224,29.333 3.930,29.035 3.930,28.666 C3.930,28.298 4.224,28.000 4.586,28.000 L13.115,28.000 C13.477,28.000 13.771,28.298 13.771,28.666 C13.771,29.035 13.477,29.333 13.115,29.333 ZM13.115,24.666 L0.650,24.666 C0.287,24.666 -0.006,24.368 -0.006,24.000 C-0.006,23.631 0.287,23.333 0.650,23.333 L13.115,23.333 C13.477,23.333 13.771,23.631 13.771,24.000 C13.771,24.368 13.477,24.666 13.115,24.666 ZM13.115,20.000 L3.274,20.000 C2.912,20.000 2.618,19.702 2.618,19.333 C2.618,18.964 2.912,18.666 3.274,18.666 L13.115,18.666 C13.477,18.666 13.771,18.964 13.771,19.333 C13.771,19.702 13.477,20.000 13.115,20.000 ZM13.115,15.333 L6.554,15.333 C6.192,15.333 5.898,15.035 5.898,14.666 C5.898,14.298 6.192,14.000 6.554,14.000 L13.115,14.000 C13.477,14.000 13.771,14.298 13.771,14.666 C13.771,15.035 13.477,15.333 13.115,15.333 ZM13.115,10.666 L9.835,10.666 C9.472,10.666 9.178,10.368 9.178,9.999 C9.178,9.631 9.472,9.333 9.835,9.333 L13.115,9.333 C13.477,9.333 13.771,9.631 13.771,9.999 C13.771,10.368 13.477,10.666 13.115,10.666 Z" class="cls-1"/>
</svg>
