<svg xmlns="http://www.w3.org/2000/svg" xmlns:xlink="http://www.w3.org/1999/xlink" preserveAspectRatio="xMidYMid" width="37" height="40" viewBox="0 0 37 40">
  <defs>
    <style>
      .cls-1 {
        fill: #999;
        fill-rule: evenodd;
      }
    </style>
  </defs>
  <path d="M36.901,1.181 C35.928,3.331 34.811,5.327 33.565,7.266 C33.588,7.343 33.613,7.419 33.613,7.504 C33.613,25.418 18.908,39.993 0.833,39.993 C0.369,39.993 -0.007,39.620 -0.007,39.160 C-0.007,35.610 0.598,32.061 1.793,28.614 C1.859,28.422 1.993,28.260 2.171,28.160 L7.754,24.998 L4.641,24.998 C4.345,24.998 4.071,24.843 3.918,24.592 C3.767,24.342 3.760,24.028 3.900,23.770 C9.503,13.470 20.188,6.998 31.930,6.699 C33.224,4.721 34.375,2.691 35.367,0.500 C35.508,0.189 35.815,0.006 36.135,0.006 C36.249,0.006 36.367,0.030 36.479,0.079 C36.903,0.268 37.091,0.761 36.901,1.181 ZM6.087,23.332 L10.919,23.332 C11.301,23.332 11.634,23.585 11.731,23.952 C11.829,24.317 11.668,24.700 11.336,24.890 L3.283,29.450 C2.308,32.356 1.771,35.333 1.686,38.316 C17.655,37.888 30.621,25.462 31.807,9.830 C29.074,13.583 25.744,17.233 21.606,21.416 C21.278,21.744 20.747,21.748 20.417,21.429 C20.086,21.108 20.079,20.578 20.404,20.252 C24.649,15.960 28.033,12.250 30.768,8.416 C20.577,9.065 11.355,14.615 6.087,23.332 Z" class="cls-1"/>
</svg>
