<svg xmlns="http://www.w3.org/2000/svg" xmlns:xlink="http://www.w3.org/1999/xlink" preserveAspectRatio="xMidYMid" width="21.32" height="40" viewBox="0 0 21.32 40">
  <defs>
    <style>
      .cls-1 {
        fill: #999;
        fill-rule: evenodd;
      }
    </style>
  </defs>
  <path d="M19.017,40.001 L2.302,40.001 C1.029,40.001 -0.007,38.965 -0.007,37.691 L-0.007,4.975 C-0.007,3.702 1.029,2.666 2.302,2.666 L6.660,2.666 L6.660,-0.001 L14.660,-0.001 L14.660,2.666 L19.018,2.666 C20.291,2.666 21.327,3.702 21.327,4.975 L21.327,37.691 C21.327,38.965 20.291,40.001 19.017,40.001 ZM13.327,1.332 L7.993,1.332 L7.993,2.666 L13.327,2.666 L13.327,1.332 ZM19.994,4.975 C19.994,4.436 19.556,3.999 19.018,3.999 L14.660,3.999 L6.660,3.999 L2.302,3.999 C1.764,3.999 1.326,4.436 1.326,4.975 L1.326,37.691 C1.326,38.230 1.764,38.667 2.302,38.667 L19.018,38.667 C19.556,38.667 19.994,38.230 19.994,37.691 L19.994,4.975 ZM9.578,32.159 L9.048,31.925 C8.795,31.798 8.646,31.531 8.661,31.256 L8.660,22.667 L4.796,22.667 L12.074,10.927 L12.403,10.521 L12.923,10.733 C13.185,10.857 13.341,11.123 13.327,11.405 L13.327,19.333 L16.429,19.333 L9.915,31.735 L9.578,32.159 ZM9.995,28.737 L14.225,20.666 L11.993,20.666 L11.993,13.581 L7.190,21.333 L9.993,21.333 L9.995,28.737 Z" class="cls-1"/>
</svg>
