<svg xmlns="http://www.w3.org/2000/svg" xmlns:xlink="http://www.w3.org/1999/xlink" preserveAspectRatio="xMidYMid" width="40" height="40" viewBox="0 0 40 40">
  <defs>
    <style>
      .cls-1 {
        fill: #999;
        fill-rule: evenodd;
      }
    </style>
  </defs>
  <path d="M40.010,5.993 L40.010,0.657 C40.010,0.288 39.712,-0.010 39.344,-0.010 C39.344,-0.010 39.343,-0.010 39.343,-0.010 L34.007,-0.010 L34.007,1.324 L37.733,1.324 L21.836,17.220 C21.482,16.984 21.084,16.818 20.667,16.732 L20.667,2.267 L23.530,5.130 L24.474,4.187 L20.471,0.185 C20.211,-0.075 19.789,-0.075 19.529,0.185 C19.528,0.185 19.528,0.185 19.528,0.185 L15.526,4.187 L16.470,5.130 L19.333,2.267 L19.333,16.732 C18.915,16.818 18.518,16.984 18.164,17.220 L2.267,1.324 L5.993,1.324 L5.993,-0.010 L0.657,-0.010 C0.289,-0.010 -0.010,0.288 -0.010,0.656 C-0.010,0.656 -0.010,0.656 -0.010,0.657 L-0.010,5.993 L1.324,5.993 L1.324,2.267 L17.220,18.164 C16.984,18.518 16.818,18.915 16.732,19.333 L2.267,19.333 L5.130,16.469 L4.187,15.526 L0.185,19.528 C-0.075,19.788 -0.075,20.211 0.185,20.471 C0.185,20.471 0.185,20.471 0.185,20.471 L4.187,24.473 L5.130,23.530 L2.267,20.667 L16.732,20.667 C16.818,21.084 16.984,21.481 17.221,21.836 L1.324,37.733 L1.324,34.007 L-0.010,34.007 L-0.010,39.343 C-0.010,39.711 0.288,40.010 0.656,40.010 C0.656,40.010 0.657,40.010 0.657,40.010 L5.993,40.010 L5.993,38.676 L2.267,38.676 L18.164,22.779 C18.518,23.016 18.915,23.181 19.333,23.267 L19.333,37.733 L16.469,34.869 L15.526,35.812 L19.528,39.814 C19.789,40.075 20.211,40.075 20.471,39.815 C20.471,39.815 20.471,39.814 20.472,39.814 L24.474,35.812 L23.530,34.869 L20.667,37.733 L20.667,23.267 C21.084,23.181 21.481,23.016 21.836,22.779 L37.733,38.676 L34.007,38.676 L34.007,40.010 L39.343,40.010 C39.711,40.010 40.010,39.712 40.010,39.344 C40.010,39.344 40.010,39.343 40.010,39.343 L40.010,34.007 L38.676,34.007 L38.676,37.733 L22.779,21.836 C23.016,21.481 23.182,21.084 23.267,20.667 L37.733,20.667 L34.869,23.530 L35.813,24.473 L39.815,20.471 C40.075,20.211 40.075,19.789 39.815,19.529 C39.815,19.528 39.815,19.528 39.815,19.528 L35.813,15.526 L34.869,16.469 L37.733,19.333 L23.268,19.333 C23.182,18.915 23.016,18.518 22.779,18.164 L38.676,2.267 L38.676,5.993 L40.010,5.993 ZM20.000,22.001 C18.895,22.001 17.999,21.105 17.999,20.000 C17.999,18.895 18.895,17.999 20.000,17.999 C21.105,17.999 22.001,18.895 22.001,20.000 C22.000,21.104 21.105,22.000 20.000,22.001 Z" class="cls-1"/>
</svg>
