<svg xmlns="http://www.w3.org/2000/svg" xmlns:xlink="http://www.w3.org/1999/xlink" preserveAspectRatio="xMidYMid" width="40" height="40" viewBox="0 0 40 40">
  <defs>
    <style>
      .cls-1 {
        fill: #999;
        fill-rule: evenodd;
      }
    </style>
  </defs>
  <path d="M39.360,5.533 L35.318,5.533 L35.318,11.002 L39.360,11.002 C39.713,11.002 39.998,11.287 39.998,11.640 C39.998,11.992 39.713,12.278 39.360,12.278 L35.318,12.278 L35.318,13.342 C35.318,13.694 35.032,13.980 34.680,13.980 L32.765,13.980 L32.765,25.319 C32.765,25.671 32.479,25.957 32.127,25.957 L20.000,25.957 C19.647,25.957 19.362,25.671 19.362,25.319 L19.362,15.618 C17.907,15.321 16.809,14.032 16.809,12.491 L16.809,0.639 C16.809,0.287 17.094,0.001 17.447,0.001 L32.127,0.001 C32.479,0.001 32.765,0.287 32.765,0.639 L32.765,2.554 L34.680,2.554 C35.032,2.554 35.318,2.840 35.318,3.193 L35.318,4.256 L39.360,4.256 C39.713,4.256 39.998,4.542 39.998,4.895 C39.998,5.247 39.713,5.533 39.360,5.533 ZM34.041,3.831 L32.765,3.831 L32.765,6.991 C32.765,7.343 32.479,7.629 32.127,7.629 C31.774,7.629 31.488,7.343 31.488,6.991 L31.488,1.278 L18.085,1.278 L18.085,12.491 C18.085,13.546 18.944,14.405 20.000,14.405 C20.352,14.405 20.638,14.691 20.638,15.044 L20.638,24.680 L31.488,24.680 L31.488,9.544 C31.488,9.191 31.774,8.905 32.127,8.905 C32.479,8.905 32.765,9.191 32.765,9.544 L32.765,12.703 L34.041,12.703 L34.041,3.831 ZM23.829,34.148 L23.829,28.510 L23.191,28.510 C22.839,28.510 22.553,28.224 22.553,27.871 C22.553,27.519 22.839,27.233 23.191,27.233 L25.744,27.233 C26.097,27.233 26.382,27.519 26.382,27.871 C26.382,28.224 26.097,28.510 25.744,28.510 L25.106,28.510 L25.106,34.148 C25.106,37.374 22.481,39.998 19.255,39.998 C16.029,39.998 13.405,37.374 13.405,34.148 L13.405,5.852 C13.405,3.330 11.353,1.278 8.831,1.278 C6.308,1.278 4.256,3.330 4.256,5.852 L4.256,19.574 L6.597,19.574 C6.949,19.574 7.235,19.860 7.235,20.213 L7.235,27.871 C7.235,28.224 6.949,28.510 6.597,28.510 L6.384,28.510 L6.384,32.127 C6.384,32.479 6.098,32.765 5.746,32.765 L1.491,32.765 C1.138,32.765 0.852,32.479 0.852,32.127 L0.852,28.510 L0.640,28.510 C0.287,28.510 0.001,28.224 0.001,27.871 L0.001,20.213 C0.001,19.860 0.287,19.574 0.640,19.574 L2.980,19.574 L2.980,5.852 C2.980,2.626 5.604,0.001 8.831,0.001 C12.057,0.001 14.681,2.626 14.681,5.852 L14.681,34.148 C14.681,36.670 16.733,38.722 19.255,38.722 C21.778,38.722 23.829,36.670 23.829,34.148 ZM2.129,31.488 L5.107,31.488 L5.107,28.510 L2.129,28.510 L2.129,31.488 ZM1.278,20.851 L1.278,27.233 L5.958,27.233 L5.958,20.851 L1.278,20.851 Z" class="cls-1"/>
</svg>
