<svg xmlns="http://www.w3.org/2000/svg" xmlns:xlink="http://www.w3.org/1999/xlink" preserveAspectRatio="xMidYMid" width="40" height="40" viewBox="0 0 40 40">
  <defs>
    <style>
      .cls-1 {
        fill: #3cf;
        fill-rule: evenodd;
      }
    </style>
  </defs>
  <path d="M27.498,39.993 L12.502,39.993 C5.602,39.993 0.006,34.398 0.006,27.497 L0.006,12.502 C0.006,5.602 5.602,0.006 12.502,0.006 L27.498,0.006 C34.398,0.006 39.994,5.602 39.994,12.502 L39.994,27.497 C39.994,34.398 34.398,39.993 27.498,39.993 ZM36.245,12.502 C36.245,7.679 32.321,3.755 27.498,3.755 L12.502,3.755 C7.679,3.755 3.755,7.679 3.755,12.502 L3.755,27.497 C3.755,32.321 7.679,36.245 12.502,36.245 L27.498,36.245 C32.321,36.245 36.245,32.321 36.245,27.497 L36.245,12.502 ZM30.747,10.585 C30.011,10.585 29.414,9.989 29.414,9.253 C29.414,8.518 30.011,7.921 30.747,7.921 C31.482,7.921 32.079,8.518 32.079,9.253 C32.079,9.989 31.482,10.585 30.747,10.585 ZM20.000,29.997 C14.479,29.997 10.003,25.520 10.003,20.000 C10.003,14.479 14.479,10.003 20.000,10.003 C25.521,10.003 29.997,14.479 29.997,20.000 C29.997,25.520 25.521,29.997 20.000,29.997 ZM20.000,13.752 C16.556,13.752 13.752,16.553 13.752,20.000 C13.752,23.444 16.556,26.248 20.000,26.248 C23.444,26.248 26.248,23.444 26.248,20.000 C26.248,16.553 23.444,13.752 20.000,13.752 Z" class="cls-1"/>
</svg>
