<svg xmlns="http://www.w3.org/2000/svg" xmlns:xlink="http://www.w3.org/1999/xlink" preserveAspectRatio="xMidYMid" width="40" height="32.5" viewBox="0 0 40 32.5">
  <defs>
    <style>
      .cls-1 {
        fill: #3cf;
        fill-rule: evenodd;
      }
    </style>
  </defs>
  <path d="M39.994,3.851 C38.507,4.503 36.922,4.936 35.270,5.146 C36.969,4.131 38.267,2.537 38.876,0.615 C37.292,1.559 35.543,2.227 33.678,2.599 C32.174,0.997 30.029,0.005 27.690,0.005 C23.151,0.005 19.498,3.689 19.498,8.205 C19.498,8.855 19.553,9.479 19.688,10.074 C12.872,9.742 6.842,6.475 2.790,1.499 C2.083,2.727 1.668,4.131 1.668,5.643 C1.668,8.482 3.130,10.999 5.310,12.456 C3.993,12.431 2.700,12.049 1.606,11.446 C1.606,11.471 1.606,11.504 1.606,11.536 C1.606,15.520 4.447,18.829 8.174,19.591 C7.506,19.774 6.779,19.861 6.024,19.861 C5.500,19.861 4.970,19.831 4.472,19.721 C5.535,22.968 8.549,25.354 12.132,25.432 C9.343,27.614 5.802,28.928 1.968,28.928 C1.296,28.928 0.651,28.898 0.006,28.816 C3.638,31.158 7.941,32.495 12.582,32.495 C27.668,32.495 35.915,19.999 35.915,9.167 C35.915,8.805 35.902,8.455 35.885,8.107 C37.512,6.953 38.879,5.511 39.994,3.851 Z" class="cls-1"/>
</svg>
